<mxfile host="app.diagrams.net" agent="Mozilla/5.0 (Macintosh; Intel Mac OS X 10_15_7) AppleWebKit/537.36 (KHTML, like Gecko) Chrome/129.0.0.0 Safari/537.36" version="24.8.0">
  <diagram name="第 1 页" id="uWSThM_glE0ANEyKwjhP">
    <mxGraphModel dx="1026" dy="650" grid="1" gridSize="10" guides="1" tooltips="1" connect="1" arrows="1" fold="1" page="1" pageScale="1" pageWidth="827" pageHeight="1169" math="0" shadow="0">
      <root>
        <mxCell id="0" />
        <mxCell id="1" parent="0" />
        <mxCell id="VLuIAE1a0T2NLtZTQdPu-3" value="" style="edgeStyle=orthogonalEdgeStyle;rounded=0;orthogonalLoop=1;jettySize=auto;html=1;" parent="1" source="VLuIAE1a0T2NLtZTQdPu-1" target="VLuIAE1a0T2NLtZTQdPu-2" edge="1">
          <mxGeometry relative="1" as="geometry" />
        </mxCell>
        <mxCell id="VLuIAE1a0T2NLtZTQdPu-1" value="标签详情查询" style="ellipse;whiteSpace=wrap;html=1;" parent="1" vertex="1">
          <mxGeometry x="294" y="70" width="116" height="50" as="geometry" />
        </mxCell>
        <mxCell id="VLuIAE1a0T2NLtZTQdPu-5" value="" style="edgeStyle=orthogonalEdgeStyle;rounded=0;orthogonalLoop=1;jettySize=auto;html=1;" parent="1" source="VLuIAE1a0T2NLtZTQdPu-2" target="VLuIAE1a0T2NLtZTQdPu-4" edge="1">
          <mxGeometry relative="1" as="geometry" />
        </mxCell>
        <mxCell id="VLuIAE1a0T2NLtZTQdPu-6" value="不存在" style="edgeLabel;html=1;align=center;verticalAlign=middle;resizable=0;points=[];" parent="VLuIAE1a0T2NLtZTQdPu-5" vertex="1" connectable="0">
          <mxGeometry x="-0.0769" y="-4" relative="1" as="geometry">
            <mxPoint as="offset" />
          </mxGeometry>
        </mxCell>
        <mxCell id="_6_XYFa2VxBKGev51Vwd-2" value="" style="edgeStyle=orthogonalEdgeStyle;rounded=0;orthogonalLoop=1;jettySize=auto;html=1;" edge="1" parent="1" source="VLuIAE1a0T2NLtZTQdPu-2" target="_6_XYFa2VxBKGev51Vwd-1">
          <mxGeometry relative="1" as="geometry" />
        </mxCell>
        <mxCell id="VLuIAE1a0T2NLtZTQdPu-2" value="根据标签ID&lt;div&gt;和标签名校验标签存在&lt;/div&gt;" style="rhombus;whiteSpace=wrap;html=1;" parent="1" vertex="1">
          <mxGeometry x="268" y="185" width="168" height="75" as="geometry" />
        </mxCell>
        <mxCell id="VLuIAE1a0T2NLtZTQdPu-4" value="返回标签不存在" style="whiteSpace=wrap;html=1;" parent="1" vertex="1">
          <mxGeometry x="44" y="192.5" width="120" height="60" as="geometry" />
        </mxCell>
        <mxCell id="_6_XYFa2VxBKGev51Vwd-23" value="" style="edgeStyle=orthogonalEdgeStyle;rounded=0;orthogonalLoop=1;jettySize=auto;html=1;" edge="1" parent="1" source="_6_XYFa2VxBKGev51Vwd-1" target="_6_XYFa2VxBKGev51Vwd-22">
          <mxGeometry relative="1" as="geometry" />
        </mxCell>
        <mxCell id="_6_XYFa2VxBKGev51Vwd-1" value="查询标签基础信息mysql表" style="shape=process;whiteSpace=wrap;html=1;backgroundOutline=1;" vertex="1" parent="1">
          <mxGeometry x="292" y="310" width="120" height="60" as="geometry" />
        </mxCell>
        <mxCell id="_6_XYFa2VxBKGev51Vwd-8" value="" style="edgeStyle=orthogonalEdgeStyle;rounded=0;orthogonalLoop=1;jettySize=auto;html=1;" edge="1" parent="1" source="_6_XYFa2VxBKGev51Vwd-5" target="_6_XYFa2VxBKGev51Vwd-7">
          <mxGeometry relative="1" as="geometry" />
        </mxCell>
        <mxCell id="_6_XYFa2VxBKGev51Vwd-5" value="查询标签规则表" style="shape=process;whiteSpace=wrap;html=1;backgroundOutline=1;" vertex="1" parent="1">
          <mxGeometry x="292" y="580" width="120" height="60" as="geometry" />
        </mxCell>
        <mxCell id="_6_XYFa2VxBKGev51Vwd-10" value="" style="edgeStyle=orthogonalEdgeStyle;rounded=0;orthogonalLoop=1;jettySize=auto;html=1;" edge="1" parent="1" source="_6_XYFa2VxBKGev51Vwd-7" target="_6_XYFa2VxBKGev51Vwd-9">
          <mxGeometry relative="1" as="geometry" />
        </mxCell>
        <mxCell id="_6_XYFa2VxBKGev51Vwd-11" value="否" style="edgeLabel;html=1;align=center;verticalAlign=middle;resizable=0;points=[];" vertex="1" connectable="0" parent="_6_XYFa2VxBKGev51Vwd-10">
          <mxGeometry x="-0.5268" y="4" relative="1" as="geometry">
            <mxPoint as="offset" />
          </mxGeometry>
        </mxCell>
        <mxCell id="_6_XYFa2VxBKGev51Vwd-14" style="edgeStyle=orthogonalEdgeStyle;rounded=0;orthogonalLoop=1;jettySize=auto;html=1;" edge="1" parent="1" source="_6_XYFa2VxBKGev51Vwd-7" target="_6_XYFa2VxBKGev51Vwd-16">
          <mxGeometry relative="1" as="geometry">
            <mxPoint x="450" y="802.5" as="targetPoint" />
            <Array as="points">
              <mxPoint x="450" y="725" />
            </Array>
          </mxGeometry>
        </mxCell>
        <mxCell id="_6_XYFa2VxBKGev51Vwd-15" value="是" style="edgeLabel;html=1;align=center;verticalAlign=middle;resizable=0;points=[];" vertex="1" connectable="0" parent="_6_XYFa2VxBKGev51Vwd-14">
          <mxGeometry x="-0.5589" y="1" relative="1" as="geometry">
            <mxPoint as="offset" />
          </mxGeometry>
        </mxCell>
        <mxCell id="_6_XYFa2VxBKGev51Vwd-7" value="是否包含草稿" style="rhombus;whiteSpace=wrap;html=1;" vertex="1" parent="1">
          <mxGeometry x="308" y="685" width="88" height="80" as="geometry" />
        </mxCell>
        <mxCell id="_6_XYFa2VxBKGev51Vwd-9" value="根据时间返回最新非草稿规则版本" style="whiteSpace=wrap;html=1;" vertex="1" parent="1">
          <mxGeometry x="148" y="802.5" width="120" height="60" as="geometry" />
        </mxCell>
        <mxCell id="_6_XYFa2VxBKGev51Vwd-18" value="" style="edgeStyle=orthogonalEdgeStyle;rounded=0;orthogonalLoop=1;jettySize=auto;html=1;" edge="1" parent="1" source="_6_XYFa2VxBKGev51Vwd-16" target="_6_XYFa2VxBKGev51Vwd-17">
          <mxGeometry relative="1" as="geometry" />
        </mxCell>
        <mxCell id="_6_XYFa2VxBKGev51Vwd-21" value="是" style="edgeLabel;html=1;align=center;verticalAlign=middle;resizable=0;points=[];" vertex="1" connectable="0" parent="_6_XYFa2VxBKGev51Vwd-18">
          <mxGeometry x="0.0196" y="2" relative="1" as="geometry">
            <mxPoint as="offset" />
          </mxGeometry>
        </mxCell>
        <mxCell id="_6_XYFa2VxBKGev51Vwd-19" style="edgeStyle=orthogonalEdgeStyle;rounded=0;orthogonalLoop=1;jettySize=auto;html=1;" edge="1" parent="1" source="_6_XYFa2VxBKGev51Vwd-16" target="_6_XYFa2VxBKGev51Vwd-20">
          <mxGeometry relative="1" as="geometry">
            <mxPoint x="510" y="980" as="targetPoint" />
          </mxGeometry>
        </mxCell>
        <mxCell id="_6_XYFa2VxBKGev51Vwd-16" value="是否是已上线" style="rhombus;whiteSpace=wrap;html=1;" vertex="1" parent="1">
          <mxGeometry x="396" y="792.5" width="110" height="80" as="geometry" />
        </mxCell>
        <mxCell id="_6_XYFa2VxBKGev51Vwd-17" value="返回最新已上线版本" style="whiteSpace=wrap;html=1;" vertex="1" parent="1">
          <mxGeometry x="300" y="940" width="120" height="60" as="geometry" />
        </mxCell>
        <mxCell id="_6_XYFa2VxBKGev51Vwd-20" value="返回最新草稿版本" style="rounded=0;whiteSpace=wrap;html=1;" vertex="1" parent="1">
          <mxGeometry x="460" y="940" width="120" height="60" as="geometry" />
        </mxCell>
        <mxCell id="_6_XYFa2VxBKGev51Vwd-24" value="" style="edgeStyle=orthogonalEdgeStyle;rounded=0;orthogonalLoop=1;jettySize=auto;html=1;" edge="1" parent="1" source="_6_XYFa2VxBKGev51Vwd-22" target="_6_XYFa2VxBKGev51Vwd-5">
          <mxGeometry relative="1" as="geometry" />
        </mxCell>
        <mxCell id="_6_XYFa2VxBKGev51Vwd-22" value="查询分类表获取对应分类信息" style="shape=process;whiteSpace=wrap;html=1;backgroundOutline=1;" vertex="1" parent="1">
          <mxGeometry x="292" y="450" width="120" height="60" as="geometry" />
        </mxCell>
      </root>
    </mxGraphModel>
  </diagram>
</mxfile>
